<svg width="37" height="37" viewBox="0 0 37 37" fill="none" xmlns="http://www.w3.org/2000/svg">
<path d="M30.34 2.95996H6.65996C4.61756 2.95996 2.95996 4.61756 2.95996 6.65996V30.34C2.95996 32.3824 4.61756 34.04 6.65996 34.04H30.34C32.3824 34.04 34.04 32.3824 34.04 30.34V6.65996C34.04 4.61756 32.3824 2.95996 30.34 2.95996ZM12.58 14.8V28.86H8.13996V14.8H12.58ZM8.13996 10.7078C8.13996 9.67176 9.02796 8.87996 10.36 8.87996C11.692 8.87996 12.5282 9.67176 12.58 10.7078C12.58 11.7438 11.7512 12.58 10.36 12.58C9.02796 12.58 8.13996 11.7438 8.13996 10.7078ZM28.86 28.86H24.42C24.42 28.86 24.42 22.0076 24.42 21.46C24.42 19.98 23.68 18.5 21.83 18.4704H21.7708C19.98 18.4704 19.24 19.9948 19.24 21.46C19.24 22.1334 19.24 28.86 19.24 28.86H14.8V14.8H19.24V16.6944C19.24 16.6944 20.6682 14.8 23.5394 14.8C26.4772 14.8 28.86 16.8202 28.86 20.9124V28.86Z" fill="white"/>
</svg>
