<svg width="24" height="24" viewBox="0 0 24 24" fill="none" xmlns="http://www.w3.org/2000/svg">
<g clip-path="url(#clip0_6_114)">
<path d="M12 0C15.3136 0 18.3141 1.34344 20.4853 3.51469C22.6566 5.68641 24 8.68641 24 12C24 15.3136 22.6566 18.3141 20.4853 20.4853C18.3141 22.6566 15.3136 24 12 24C8.68641 24 5.68641 22.6566 3.51469 20.4853C1.34344 18.3141 0 15.3136 0 12C0 8.68641 1.34344 5.68641 3.51469 3.51469C5.68641 1.34344 8.68641 0 12 0ZM10.9927 14.1333V14.0381C11.0002 13.4072 11.062 12.9075 11.1834 12.5358C11.3025 12.1645 11.4736 11.8622 11.6977 11.6334C11.9213 11.4028 12.1903 11.1933 12.5048 11.0025C12.7069 10.8741 12.8902 10.7316 13.0523 10.5722C13.2141 10.4147 13.3425 10.2314 13.4381 10.0242C13.5328 9.81938 13.5806 9.59109 13.5806 9.33891C13.5806 9.03891 13.5094 8.77922 13.3664 8.55797C13.2258 8.33859 13.0355 8.16984 12.802 8.04844C12.5662 7.92937 12.3047 7.86984 12.0164 7.86984C11.7572 7.86984 11.5097 7.92187 11.2716 8.03156C11.0358 8.13891 10.838 8.30766 10.6833 8.53641C10.5286 8.76469 10.4381 9.05766 10.4142 9.41484H8.87156C8.89547 8.80781 9.05016 8.29359 9.33328 7.87219C9.61922 7.45078 9.99563 7.13156 10.462 6.915C10.9313 6.69844 11.4502 6.59156 12.0164 6.59156C12.6403 6.59156 13.1831 6.70547 13.6495 6.93891C14.1164 7.17 14.4806 7.49344 14.7403 7.90781C14.9972 8.32219 15.1284 8.80313 15.1284 9.35531C15.1284 9.73406 15.0689 10.0744 14.9498 10.3767C14.8308 10.6791 14.6639 10.9505 14.445 11.1862C14.2256 11.4244 13.9664 11.6334 13.6617 11.8148C13.3734 11.9958 13.1405 12.1814 12.9642 12.3741C12.7856 12.5667 12.6567 12.7955 12.5761 13.0575C12.495 13.3214 12.45 13.6477 12.443 14.0381V14.1333H10.9927ZM11.7595 17.2186C11.4811 17.2167 11.243 17.1188 11.0428 16.9209C10.8431 16.7236 10.7452 16.4831 10.7452 16.2023C10.7452 15.9262 10.8431 15.6881 11.0428 15.4903C11.243 15.293 11.4811 15.1927 11.7595 15.1927C12.0333 15.1927 12.2714 15.293 12.4711 15.4903C12.6736 15.6881 12.7734 15.9262 12.7734 16.2023C12.7734 16.388 12.7261 16.5595 12.6333 16.7119C12.5405 16.8666 12.4191 16.9903 12.2667 17.0808C12.1144 17.1713 11.9452 17.2167 11.7595 17.2186ZM19.5802 4.41984C17.6405 2.48063 14.9602 1.28062 12 1.28062C9.03984 1.28062 6.36 2.48063 4.41984 4.41984C2.48063 6.36 1.28062 9.03984 1.28062 12C1.28062 14.9602 2.48063 17.6405 4.41984 19.5802C6.36 21.5194 9.03984 22.7194 12 22.7194C14.9602 22.7194 17.6405 21.5194 19.5802 19.5802C21.5194 17.6405 22.7194 14.9602 22.7194 12C22.7194 9.03984 21.5194 6.36 19.5802 4.41984Z" fill="#666666"/>
</g>
<defs>
<clipPath id="clip0_6_114">
<rect width="24" height="24" fill="white"/>
</clipPath>
</defs>
</svg>
