<svg width="32" height="32" viewBox="0 0 32 32" fill="none" xmlns="http://www.w3.org/2000/svg">
<g clip-path="url(#clip0_6_112)">
<path fill-rule="evenodd" clip-rule="evenodd" d="M16 0C20.4181 0 24.4187 1.79125 27.3137 4.68625C30.2087 7.58188 32 11.5819 32 16C32 20.4181 30.2087 24.4187 27.3137 27.3137C24.4187 30.2087 20.4181 32 16 32C11.5819 32 7.58188 30.2087 4.68625 27.3137C1.79125 24.4187 0 20.4181 0 16C0 11.5819 1.79125 7.58188 4.68625 4.68625C7.58188 1.79125 11.5819 0 16 0ZM14.6306 18.9181V18.7887C14.6406 17.9312 14.725 17.2519 14.89 16.7469C15.0519 16.2419 15.285 15.8313 15.5887 15.52C15.8931 15.2063 16.2588 14.9213 16.6863 14.6625C16.9613 14.4875 17.2106 14.2937 17.4306 14.0769C17.6506 13.8631 17.8256 13.6138 17.9544 13.3325C18.0837 13.0538 18.1488 12.7438 18.1488 12.4006C18.1488 11.9925 18.0519 11.6394 17.8575 11.3387C17.6669 11.0406 17.4081 10.8112 17.0906 10.6462C16.77 10.4844 16.4144 10.4031 16.0225 10.4031C15.6694 10.4031 15.3331 10.475 15.0094 10.6237C14.6894 10.7694 14.4206 10.9987 14.21 11.3094C14 11.6206 13.8769 12.0187 13.8444 12.5037H11.7469C11.78 11.6781 11.99 10.9794 12.375 10.4069C12.7631 9.83437 13.275 9.4 13.9094 9.10563C14.5469 8.81125 15.2525 8.66562 16.0225 8.66562C16.8706 8.66562 17.6088 8.82063 18.2425 9.13813C18.8769 9.45188 19.3725 9.89187 19.725 10.4556C20.0744 11.0181 20.2525 11.6725 20.2525 12.4231C20.2525 12.9375 20.1719 13.4006 20.01 13.8112C19.8481 14.2225 19.6212 14.5912 19.3237 14.9119C19.0256 15.2356 18.6731 15.52 18.2594 15.7662C17.8675 16.0125 17.55 16.2644 17.3106 16.5269C17.0681 16.7887 16.8931 17.1 16.7831 17.4556C16.6731 17.8144 16.6113 18.2581 16.6019 18.7887V18.9181H14.6306ZM15.6731 23.335C15.2944 23.335 14.9706 23.1988 14.6987 22.93C14.4275 22.6619 14.2944 22.3344 14.2944 21.9531C14.2944 21.5775 14.4269 21.2538 14.6987 20.985C14.9706 20.7163 15.2944 20.5806 15.6731 20.5806C16.045 20.5806 16.3681 20.7175 16.6406 20.985C16.915 21.2544 17.0519 21.5775 17.0519 21.9531C17.0519 22.2056 16.9862 22.4381 16.8606 22.6456C16.7344 22.855 16.5694 23.025 16.3625 23.1475C16.1556 23.27 15.9256 23.335 15.6731 23.335Z" fill="white"/>
</g>
<defs>
<clipPath id="clip0_6_112">
<rect width="32" height="32" fill="white"/>
</clipPath>
</defs>
</svg>
